<svg id="44fdd4b6-07ac-42bc-ad23-58b7a7095272" data-name="Layer 1" xmlns="http://www.w3.org/2000/svg" viewBox="0 0 405.22176 407.54395"><defs><style>.\32 0c65326-eab2-4f33-94f1-59c8332c9cfa{fill:#e4d094;}</style></defs><title>logo</title><path class="20c65326-eab2-4f33-94f1-59c8332c9cfa" d="M160.75363,82.45v70.82673h27.86625s6.96656-1.16109,6.96656-6.96656V82.45Z" transform="translate(-46.96644 -46.45605)"/><path class="20c65326-eab2-4f33-94f1-59c8332c9cfa" d="M303.56818,82.45v70.82673h27.86625s6.96656-1.16109,6.96656-6.96656V82.45Z" transform="translate(-46.96644 -46.45605)"/><path class="20c65326-eab2-4f33-94f1-59c8332c9cfa" d="M231.58036,46.45605V189.2706h26.70516s8.12766,0,8.12766-8.12766V46.45605Z" transform="translate(-46.96644 -46.45605)"/><path class="20c65326-eab2-4f33-94f1-59c8332c9cfa" d="M267.57427,310.02436V454H231.58036V319.31311s0-9.28875,9.28875-9.28875Z" transform="translate(-46.96644 -46.45605)"/><path class="20c65326-eab2-4f33-94f1-59c8332c9cfa" d="M196.74754,347.17936v70.82673H160.75363V354.14593s0-6.96656,6.96656-6.96656Z" transform="translate(-46.96644 -46.45605)"/><path class="20c65326-eab2-4f33-94f1-59c8332c9cfa" d="M339.56209,347.17936v70.82673H303.56818V354.14593s0-6.96656,6.96656-6.96656Z" transform="translate(-46.96644 -46.45605)"/><path class="20c65326-eab2-4f33-94f1-59c8332c9cfa" d="M81.79925,303.0578v35.99391h71.98782V311.18546s0-8.12766-8.12766-8.12766Z" transform="translate(-46.96644 -46.45605)"/><path class="20c65326-eab2-4f33-94f1-59c8332c9cfa" d="M346.52865,303.0578h70.82673v35.99391h-61.538s-9.28875,0-9.28875-8.12766Z" transform="translate(-46.96644 -46.45605)"/><path class="20c65326-eab2-4f33-94f1-59c8332c9cfa" d="M46.96644,232.23107V268.225H188.61989V240.35873s0-8.12766-8.12766-8.12766Z" transform="translate(-46.96644 -46.45605)"/><path class="20c65326-eab2-4f33-94f1-59c8332c9cfa" d="M310.53474,232.23107H452.18819v34.83282H319.82349s-9.28875,1.16109-9.28875-8.12766Z" transform="translate(-46.96644 -46.45605)"/><path class="20c65326-eab2-4f33-94f1-59c8332c9cfa" d="M81.79925,160.24325h62.69907s9.28875,0,9.28875,9.28875v26.70516H81.79925Z" transform="translate(-46.96644 -46.45605)"/><path class="20c65326-eab2-4f33-94f1-59c8332c9cfa" d="M346.52865,160.24325h70.82673v35.99391h-61.538s-9.28875,0-9.28875-9.28875Z" transform="translate(-46.96644 -46.45605)"/></svg>